<svg xmlns="http://www.w3.org/2000/svg" width="640" height="480" viewBox="0 0 640 480" role="img" aria-hidden="true">
  <defs>
    <linearGradient id="g_c98cd934" x1="0%" y1="0%" x2="100%" y2="100%">
      <stop offset="0%" stop-color="#0A0F1E"/>
      <stop offset="55%" stop-color="#1E293B"/>
      <stop offset="100%" stop-color="#0A0F1E"/>
    </linearGradient>
    <linearGradient id="g_e8bc8b26" x1="0%" y1="100%" x2="100%" y2="0%">
      <stop offset="0%" stop-color="#38BDF8" stop-opacity="0.35"/>
      <stop offset="100%" stop-color="#6366F1" stop-opacity="0.12"/>
    </linearGradient>
    <radialGradient id="r_g_c98cd934" cx="70%" cy="25%" r="55%">
      <stop offset="0%" stop-color="#38BDF8" stop-opacity="0.28"/>
      <stop offset="100%" stop-color="#0A0F1E" stop-opacity="0"/>
    </radialGradient>
    <filter id="soft_g_c98cd934" x="-20%" y="-20%" width="140%" height="140%">
      <feGaussianBlur stdDeviation="8"/>
    </filter>
  </defs>
  <rect width="640" height="480" fill="url(#g_c98cd934)"/>
  <rect width="640" height="480" fill="url(#g_e8bc8b26)"/>
  <ellipse cx="460" cy="105" rx="224" ry="134" fill="url(#r_g_c98cd934)"/>
  <rect x="200" y="120" width="240" height="260" rx="8" fill="rgba(15,23,42,0.92)" opacity="1"/>
  <rect x="220" y="140" width="32" height="28" rx="3" fill="#38BDF8" opacity="0.55"/>
  <rect x="270" y="140" width="32" height="28" rx="3" fill="rgba(148,163,184,0.2)" opacity="0.55"/>
  <rect x="320" y="140" width="32" height="28" rx="3" fill="rgba(148,163,184,0.2)" opacity="0.55"/>
  <rect x="370" y="140" width="32" height="28" rx="3" fill="#38BDF8" opacity="0.55"/>
  <rect x="220" y="182" width="32" height="28" rx="3" fill="rgba(148,163,184,0.2)" opacity="0.55"/>
  <rect x="270" y="182" width="32" height="28" rx="3" fill="rgba(148,163,184,0.2)" opacity="0.55"/>
  <rect x="320" y="182" width="32" height="28" rx="3" fill="#38BDF8" opacity="0.55"/>
  <rect x="370" y="182" width="32" height="28" rx="3" fill="rgba(148,163,184,0.2)" opacity="0.55"/>
  <rect x="220" y="224" width="32" height="28" rx="3" fill="rgba(148,163,184,0.2)" opacity="0.55"/>
  <rect x="270" y="224" width="32" height="28" rx="3" fill="#38BDF8" opacity="0.55"/>
  <rect x="320" y="224" width="32" height="28" rx="3" fill="rgba(148,163,184,0.2)" opacity="0.55"/>
  <rect x="370" y="224" width="32" height="28" rx="3" fill="rgba(148,163,184,0.2)" opacity="0.55"/>
  <rect x="220" y="266" width="32" height="28" rx="3" fill="#38BDF8" opacity="0.55"/>
  <rect x="270" y="266" width="32" height="28" rx="3" fill="rgba(148,163,184,0.2)" opacity="0.55"/>
  <rect x="320" y="266" width="32" height="28" rx="3" fill="rgba(148,163,184,0.2)" opacity="0.55"/>
  <rect x="370" y="266" width="32" height="28" rx="3" fill="#38BDF8" opacity="0.55"/>
  <rect x="220" y="308" width="32" height="28" rx="3" fill="rgba(148,163,184,0.2)" opacity="0.55"/>
  <rect x="270" y="308" width="32" height="28" rx="3" fill="rgba(148,163,184,0.2)" opacity="0.55"/>
  <rect x="320" y="308" width="32" height="28" rx="3" fill="#38BDF8" opacity="0.55"/>
  <rect x="370" y="308" width="32" height="28" rx="3" fill="rgba(148,163,184,0.2)" opacity="0.55"/>
  <rect x="280" y="320" width="80" height="60" rx="4" fill="rgba(14,165,233,0.25)" opacity="1"/>
  <rect x="100" y="280" width="70" height="44" rx="6" fill="rgba(30,41,59,0.9)" opacity="1"/>
  <rect x="110" y="292" width="40" height="8" rx="2" fill="#38BDF8" opacity="0.7"/>
</svg>
