<svg xmlns="http://www.w3.org/2000/svg" width="640" height="480" viewBox="0 0 640 480" role="img" aria-hidden="true">
  <defs>
    <linearGradient id="g_79b9f030" x1="0%" y1="0%" x2="100%" y2="100%">
      <stop offset="0%" stop-color="#0A0F1E"/>
      <stop offset="55%" stop-color="#1E293B"/>
      <stop offset="100%" stop-color="#0A0F1E"/>
    </linearGradient>
    <linearGradient id="g_041990bf" x1="0%" y1="100%" x2="100%" y2="0%">
      <stop offset="0%" stop-color="#10B981" stop-opacity="0.35"/>
      <stop offset="100%" stop-color="#6366F1" stop-opacity="0.12"/>
    </linearGradient>
    <radialGradient id="r_g_79b9f030" cx="70%" cy="25%" r="55%">
      <stop offset="0%" stop-color="#10B981" stop-opacity="0.28"/>
      <stop offset="100%" stop-color="#0A0F1E" stop-opacity="0"/>
    </radialGradient>
    <filter id="soft_g_79b9f030" x="-20%" y="-20%" width="140%" height="140%">
      <feGaussianBlur stdDeviation="8"/>
    </filter>
  </defs>
  <rect width="640" height="480" fill="url(#g_79b9f030)"/>
  <rect width="640" height="480" fill="url(#g_041990bf)"/>
  <ellipse cx="460" cy="105" rx="224" ry="134" fill="url(#r_g_79b9f030)"/>
  <rect x="80" y="180" width="110" height="80" rx="12" fill="rgba(15,23,42,0.9)" opacity="0.95"/>
  <circle cx="135" cy="220" r="16" fill="#94A3B8" opacity="0.8"/>
  <line x1="190" y1="220" x2="210" y2="220" stroke="#10B981" stroke-width="2" opacity="0.5" stroke-linecap="round"/>
  <rect x="210" y="180" width="110" height="80" rx="12" fill="rgba(15,23,42,0.9)" opacity="0.95"/>
  <circle cx="265" cy="220" r="16" fill="#94A3B8" opacity="0.8"/>
  <line x1="320" y1="220" x2="340" y2="220" stroke="#10B981" stroke-width="2" opacity="0.5" stroke-linecap="round"/>
  <rect x="340" y="180" width="110" height="80" rx="12" fill="rgba(15,23,42,0.9)" opacity="0.95"/>
  <circle cx="395" cy="220" r="16" fill="#94A3B8" opacity="0.8"/>
  <line x1="450" y1="220" x2="470" y2="220" stroke="#10B981" stroke-width="2" opacity="0.5" stroke-linecap="round"/>
  <rect x="470" y="180" width="110" height="80" rx="12" fill="rgba(15,23,42,0.9)" opacity="0.95"/>
  <circle cx="525" cy="220" r="16" fill="#10B981" opacity="0.8"/>
  <rect x="80" y="300" width="480" height="80" rx="10" fill="rgba(30,41,59,0.6)" opacity="1"/>
  <rect x="100" y="315" width="200" height="10" rx="2" fill="rgba(148,163,184,0.3)" opacity="0.6"/>
  <rect x="100" y="335" width="240" height="10" rx="2" fill="rgba(148,163,184,0.3)" opacity="0.6"/>
  <rect x="100" y="355" width="280" height="10" rx="2" fill="#10B981" opacity="0.6"/>
</svg>
