<svg xmlns="http://www.w3.org/2000/svg" width="640" height="480" viewBox="0 0 640 480" role="img" aria-hidden="true">
  <defs>
    <linearGradient id="g_47670985" x1="0%" y1="0%" x2="100%" y2="100%">
      <stop offset="0%" stop-color="#0A0F1E"/>
      <stop offset="55%" stop-color="#1E293B"/>
      <stop offset="100%" stop-color="#0A0F1E"/>
    </linearGradient>
    <linearGradient id="g_203c1169" x1="0%" y1="100%" x2="100%" y2="0%">
      <stop offset="0%" stop-color="#8B5CF6" stop-opacity="0.35"/>
      <stop offset="100%" stop-color="#6366F1" stop-opacity="0.12"/>
    </linearGradient>
    <radialGradient id="r_g_47670985" cx="70%" cy="25%" r="55%">
      <stop offset="0%" stop-color="#8B5CF6" stop-opacity="0.28"/>
      <stop offset="100%" stop-color="#0A0F1E" stop-opacity="0"/>
    </radialGradient>
    <filter id="soft_g_47670985" x="-20%" y="-20%" width="140%" height="140%">
      <feGaussianBlur stdDeviation="8"/>
    </filter>
  </defs>
  <rect width="640" height="480" fill="url(#g_47670985)"/>
  <rect width="640" height="480" fill="url(#g_203c1169)"/>
  <ellipse cx="460" cy="105" rx="224" ry="134" fill="url(#r_g_47670985)"/>
  <rect x="80" y="100" width="200" height="280" rx="12" fill="rgba(15,23,42,0.9)" opacity="1"/>
  <rect x="220" y="120" width="220" height="260" rx="12" fill="rgba(15,23,42,0.9)" opacity="1"/>
  <rect x="380" y="140" width="180" height="220" rx="12" fill="rgba(15,23,42,0.9)" opacity="1"/>
  <rect x="100" y="120" width="160" height="16" rx="4" fill="#8B5CF6" opacity="0.5"/>
  <rect x="100" y="150" width="160" height="80" rx="8" fill="rgba(14,165,233,0.1)" opacity="1"/>
  <rect x="100" y="240" width="96.0" height="12" rx="3" fill="#94A3B8" opacity="0.4"/>
  <rect x="100" y="265" width="128.0" height="12" rx="3" fill="#94A3B8" opacity="0.3"/>
  <rect x="240" y="140" width="180" height="16" rx="4" fill="#8B5CF6" opacity="0.5"/>
  <rect x="240" y="170" width="180" height="80" rx="8" fill="rgba(14,165,233,0.1)" opacity="1"/>
  <rect x="240" y="260" width="108.0" height="12" rx="3" fill="#94A3B8" opacity="0.4"/>
  <rect x="240" y="285" width="144.0" height="12" rx="3" fill="#94A3B8" opacity="0.3"/>
  <rect x="400" y="160" width="140" height="16" rx="4" fill="#8B5CF6" opacity="0.5"/>
  <rect x="400" y="190" width="140" height="80" rx="8" fill="rgba(14,165,233,0.1)" opacity="1"/>
  <rect x="400" y="280" width="84.0" height="12" rx="3" fill="#94A3B8" opacity="0.4"/>
  <rect x="400" y="305" width="112.0" height="12" rx="3" fill="#94A3B8" opacity="0.3"/>
</svg>
